<svg width="82" height="69" viewBox="0 0 82 69" fill="none" xmlns="http://www.w3.org/2000/svg">
<path d="M56.8254 21.3265C55.6701 22.6956 54.493 24.0647 53.316 25.4121C49.654 29.6499 46.0138 33.8007 42.3736 37.8429L40.8041 39.7336L39.2347 37.8429C35.5945 33.779 31.9325 29.6282 28.2923 25.4121C27.1152 24.043 25.9381 22.6739 24.7829 21.3265C24.1725 20.631 20.2926 16.089 21.2953 9.98228C21.4696 8.87393 22.2326 4.31018 26.1997 1.9631C30.2977 -0.449172 35.3983 0.985152 38.3846 3.1801C39.5181 4.00592 40.3028 4.91868 40.8041 5.61411C41.3055 4.91868 42.0902 4.00592 43.2237 3.1801C46.2099 0.985152 51.3106 -0.449172 55.4085 1.9631C59.3975 4.28844 60.1386 8.8522 60.313 9.98228C61.3157 16.089 57.4357 20.631 56.8254 21.3265Z" fill="#FFFFFF"/>
<path d="M0.282227 31.1712C10.5489 28.4329 21.9273 31.0842 29.9924 39.1034C38.0575 47.1226 40.695 58.4885 37.9485 68.7244L0.282227 31.1712Z" fill="#FFFFFF"/>
<path d="M81.2823 31.1712C71.0156 28.4329 59.6373 31.0842 51.5721 39.1034C43.5288 47.1226 40.8695 58.4885 43.616 68.7244L81.2823 31.1712Z" fill="#FFFFFF"/>
</svg>
